<?xml version="1.0" encoding="UTF-8" standalone="no"?>
<!DOCTYPE svg PUBLIC "-//W3C//DTD SVG 1.1//EN"
 "http://www.w3.org/Graphics/SVG/1.1/DTD/svg11.dtd">
<!-- Generated by graphviz version 2.43.0 (0)
 -->
<!-- Title: %3 Pages: 1 -->
<svg width="219pt" height="185pt"
 viewBox="0.00 0.00 218.62 185.40" xmlns="http://www.w3.org/2000/svg" xmlns:xlink="http://www.w3.org/1999/xlink">
<g id="graph0" class="graph" transform="scale(1 1) rotate(0) translate(4 181.4)">
<title>%3</title>
<polygon fill="white" stroke="transparent" points="-4,4 -4,-181.4 214.62,-181.4 214.62,4 -4,4"/>
<!-- 1 -->
<g id="node1" class="node">
<title>1</title>
<ellipse fill="none" stroke="black" cx="99.52" cy="-18" rx="27" ry="18"/>
<text text-anchor="middle" x="99.52" y="-14.3" font-family="Times,serif" font-size="14.00">1</text>
</g>
<!-- 2 -->
<g id="node2" class="node">
<title>2</title>
<ellipse fill="none" stroke="black" cx="157.79" cy="-63.54" rx="27" ry="18"/>
<text text-anchor="middle" x="157.79" y="-59.84" font-family="Times,serif" font-size="14.00">2</text>
</g>
<!-- 1&#45;&gt;2 -->
<g id="edge1" class="edge">
<title>1&#45;&gt;2</title>
<path fill="none" stroke="black" d="M117.32,-31.91C121.95,-35.53 127.04,-39.5 131.99,-43.37"/>
<polygon fill="black" stroke="black" points="130.07,-46.31 140.1,-49.71 134.38,-40.8 130.07,-46.31"/>
</g>
<!-- 3 -->
<g id="node3" class="node">
<title>3</title>
<ellipse fill="none" stroke="black" cx="27" cy="-34.55" rx="27" ry="18"/>
<text text-anchor="middle" x="27" y="-30.85" font-family="Times,serif" font-size="14.00">3</text>
</g>
<!-- 1&#45;&gt;3 -->
<g id="edge2" class="edge">
<title>1&#45;&gt;3</title>
<path fill="none" stroke="black" d="M73.75,-23.88C70.12,-24.71 66.33,-25.58 62.55,-26.44"/>
<polygon fill="black" stroke="black" points="61.66,-23.05 52.69,-28.69 63.22,-29.88 61.66,-23.05"/>
</g>
<!-- 4 -->
<g id="node4" class="node">
<title>4</title>
<ellipse fill="none" stroke="black" cx="81.5" cy="-85.89" rx="27" ry="18"/>
<text text-anchor="middle" x="81.5" y="-82.19" font-family="Times,serif" font-size="14.00">4</text>
</g>
<!-- 1&#45;&gt;4 -->
<g id="edge3" class="edge">
<title>1&#45;&gt;4</title>
<path fill="none" stroke="black" d="M94.79,-35.84C92.98,-42.64 90.88,-50.58 88.88,-58.09"/>
<polygon fill="black" stroke="black" points="85.45,-57.37 86.27,-67.94 92.22,-59.17 85.45,-57.37"/>
</g>
<!-- 2&#45;&gt;4 -->
<g id="edge4" class="edge">
<title>2&#45;&gt;4</title>
<path fill="none" stroke="black" d="M132.81,-70.86C127.49,-72.42 121.77,-74.09 116.16,-75.74"/>
<polygon fill="black" stroke="black" points="114.89,-72.46 106.28,-78.63 116.86,-79.18 114.89,-72.46"/>
</g>
<!-- 6 -->
<g id="node5" class="node">
<title>6</title>
<ellipse fill="none" stroke="black" cx="183.62" cy="-137.97" rx="27" ry="18"/>
<text text-anchor="middle" x="183.62" y="-134.27" font-family="Times,serif" font-size="14.00">6</text>
</g>
<!-- 2&#45;&gt;6 -->
<g id="edge5" class="edge">
<title>2&#45;&gt;6</title>
<path fill="none" stroke="black" d="M163.91,-81.18C166.94,-89.92 170.68,-100.68 174.08,-110.47"/>
<polygon fill="black" stroke="black" points="170.87,-111.9 177.45,-120.2 177.48,-109.61 170.87,-111.9"/>
</g>
<!-- 3&#45;&gt;4 -->
<g id="edge6" class="edge">
<title>3&#45;&gt;4</title>
<path fill="none" stroke="black" d="M42.76,-49.4C47.58,-53.94 52.98,-59.03 58.19,-63.93"/>
<polygon fill="black" stroke="black" points="55.9,-66.59 65.58,-70.9 60.7,-61.49 55.9,-66.59"/>
</g>
<!-- 5 -->
<g id="node6" class="node">
<title>5</title>
<ellipse fill="none" stroke="black" cx="107.65" cy="-159.4" rx="27" ry="18"/>
<text text-anchor="middle" x="107.65" y="-155.7" font-family="Times,serif" font-size="14.00">5</text>
</g>
<!-- 5&#45;&gt;4 -->
<g id="edge7" class="edge">
<title>5&#45;&gt;4</title>
<path fill="none" stroke="black" d="M101.32,-141.61C98.27,-133.03 94.54,-122.55 91.15,-113.01"/>
<polygon fill="black" stroke="black" points="94.42,-111.77 87.77,-103.52 87.83,-114.12 94.42,-111.77"/>
</g>
<!-- 5&#45;&gt;6 -->
<g id="edge8" class="edge">
<title>5&#45;&gt;6</title>
<path fill="none" stroke="black" d="M132.53,-152.38C137.77,-150.9 143.4,-149.32 148.93,-147.76"/>
<polygon fill="black" stroke="black" points="150.01,-151.09 158.69,-145 148.11,-144.35 150.01,-151.09"/>
</g>
</g>
</svg>
